<?xml version="1.0" encoding="UTF-8" standalone="no"?>
<!DOCTYPE svg PUBLIC "-//W3C//DTD SVG 1.1//EN" "http://www.w3.org/Graphics/SVG/1.1/DTD/svg11.dtd">
<svg width="100%" height="100%" viewBox="0 0 512 512" version="1.1" xmlns="http://www.w3.org/2000/svg" xmlns:xlink="http://www.w3.org/1999/xlink" xml:space="preserve" xmlns:serif="http://www.serif.com/" style="fill-rule:evenodd;clip-rule:evenodd;stroke-linejoin:round;stroke-miterlimit:2;">
    <rect id="Artboard1" x="0" y="0" width="512" height="512" style="fill:none;"/>
    <g id="Artboard11" serif:id="Artboard1">
        <g transform="matrix(1.845297,0,0,1.845297,-33.095019,-382.841686)">
            <g transform="matrix(2.095886,0,0,2.095886,-292.566363,-16.791676)">
                <g transform="matrix(49.700541,0,0,49.700541,176.753701,189.502019)">
                    <path d="M0.337,0.012C0.283,0.012 0.234,-0.001 0.191,-0.028C0.148,-0.055 0.115,-0.094 0.09,-0.145C0.066,-0.196 0.053,-0.257 0.053,-0.328C0.053,-0.398 0.066,-0.459 0.091,-0.51C0.116,-0.561 0.15,-0.6 0.194,-0.628C0.238,-0.655 0.288,-0.668 0.344,-0.668C0.388,-0.668 0.424,-0.66 0.453,-0.643C0.483,-0.626 0.506,-0.608 0.525,-0.588L0.478,-0.535C0.462,-0.552 0.444,-0.567 0.423,-0.578C0.402,-0.589 0.375,-0.595 0.344,-0.595C0.303,-0.595 0.267,-0.584 0.237,-0.563C0.206,-0.541 0.182,-0.511 0.165,-0.471C0.148,-0.431 0.14,-0.384 0.14,-0.33C0.14,-0.275 0.148,-0.227 0.164,-0.187C0.18,-0.147 0.203,-0.116 0.233,-0.094C0.263,-0.072 0.299,-0.061 0.342,-0.061C0.365,-0.061 0.387,-0.065 0.407,-0.072C0.427,-0.079 0.444,-0.088 0.456,-0.1L0.456,-0.271L0.325,-0.271L0.325,-0.34L0.533,-0.34L0.533,-0.064C0.512,-0.043 0.485,-0.025 0.451,-0.01C0.418,0.005 0.38,0.012 0.337,0.012Z" style="fill-rule:nonzero;"/>
                </g>
                <g transform="matrix(49.700541,0,0,49.700541,206.574026,189.502019)">
                    <path d="M0.133,-0L0.133,-0.656L0.536,-0.656L0.536,-0.586L0.217,-0.586L0.217,-0.364L0.487,-0.364L0.487,-0.294L0.217,-0.294L0.217,-0L0.133,-0Z" style="fill-rule:nonzero;"/>
                </g>
                <g transform="matrix(49.700541,0,0,49.700541,236.394351,189.502019)">
                </g>
            </g>
            <g transform="matrix(1,0,0,1,-164.005384,-60.239546)">
                <g transform="matrix(104.166667,0,0,104.166667,182.955585,441.02288)">
                    <path d="M0.493,-0.048L0.12,-0.301L0.12,-0.363L0.493,-0.616L0.493,-0.537L0.192,-0.334L0.192,-0.33L0.493,-0.127L0.493,-0.048Z" style="fill:rgb(7,233,206);fill-rule:nonzero;"/>
                </g>
                <g transform="matrix(104.166667,0,0,104.166667,245.455585,441.02288)">
                </g>
            </g>
            <g transform="matrix(1,0,0,1,-91.650067,0)">
                <g transform="matrix(1,0,0,1,40.656797,-38.8775)">
                    <g transform="matrix(104.166667,0,0,104.166667,282.874832,419.660834)">
                        <path d="M0.107,-0.048L0.107,-0.127L0.408,-0.33L0.408,-0.334L0.107,-0.537L0.107,-0.616L0.48,-0.363L0.48,-0.301L0.107,-0.048Z" style="fill:rgb(7,233,206);fill-rule:nonzero;"/>
                    </g>
                    <g transform="matrix(104.166667,0,0,104.166667,345.374832,419.660834)">
                    </g>
                </g>
                <g transform="matrix(0.64842,0,0,0.64842,71.317645,205.905096)">
                    <g transform="matrix(104.166667,0,0,104.166667,339.380888,245.318977)">
                        <path d="M0.074,0.16L0.403,-0.71L0.526,-0.71L0.197,0.16L0.074,0.16Z" style="fill:rgb(7,233,206);fill-rule:nonzero;"/>
                    </g>
                    <g transform="matrix(104.166667,0,0,104.166667,401.880888,245.318977)">
                    </g>
                </g>
            </g>
        </g>
    </g>
</svg>
